PathFileType	4	(X/Y/Z)	22_2_82_p0_0-196_filt_butterworth.trc
DataRate	CameraRate	NumFrames	NumMarkers	Units	OrigDataRate	OrigDataStartFrame	OrigNumFrames
60.0	60.0	7	27	m	60.0	0	196
Frame#	Time	RHip			RKnee			RAnkle			RBigToe			RSmallToe			RHeel			LHip			LKnee			LAnkle			LBigToe			LSmallToe			LHeel			Neck			Head			Nose			RShoulder			RElbow			RWrist			RThumb			RIndex			RPinky			LShoulder			LElbow			LWrist			LThumb			LIndex			LPinky			
		X1	Y1	Z1	X2	Y2	Z2	X3	Y3	Z3	X4	Y4	Z4	X5	Y5	Z5	X6	Y6	Z6	X7	Y7	Z7	X8	Y8	Z8	X9	Y9	Z9	X10	Y10	Z10	X11	Y11	Z11	X12	Y12	Z12	X13	Y13	Z13	X14	Y14	Z14	X15	Y15	Z15	X16	Y16	Z16	X17	Y17	Z17	X18	Y18	Z18	X19	Y19	Z19	X20	Y20	Z20	X21	Y21	Z21	X22	Y22	Z22	X23	Y23	Z23	X24	Y24	Z24	X25	Y25	Z25	X26	Y26	Z26	X27	Y27	Z27	
0	0.0	0.262495861688315	0.7285033319996436	0.9176988354186246	0.27290722868568973	0.252306608548565	0.8917736463418364	0.29396382411908734	-0.2548915607201296	0.9185102859950987	0.24229281954656529	-0.20795919552996123	0.6644041674290917	0.3026746283193548	-0.21758298580955202	0.6969009419843951	0.2913143266900452	-0.3112529437361107	0.9493474727092104	0.026320313338283767	0.6946268560787168	0.9444433845643803	0.05711124236913725	0.23140464737452693	0.8890232545481058	0.0926460571560276	-0.2290134970030454	0.8654524296277487	0.12656994513899714	-0.2052329701474917	0.668891427221126	0.06192416113526155	-0.20731498185850358	0.6828404168687131	0.11292111528902209	-0.3167475215006294	0.927760453963055	0.10808660227611655	1.2725885425274146	0.9691981972673888	0.10263666814117951	1.5228518593046483	0.9517751734619011	0.07412166269812044	1.4119965550426823	0.8535607182047636	0.26109740640043155	1.2180561560141836	0.9234009277862111	0.34251928883380517	0.9582093193744357	0.864296945421327	0.16920499394059474	0.8263342648219594	0.6916440208523226	0.059448537661030004	0.7365409190014935	0.6929926643826065	0.07433175073518368	0.7180715741460186	0.703380275296431	0.1302190424661707	0.6825946960123517	0.6783226156163218	-0.04818512630189437	1.2125426644171904	0.9387412921967941	-0.09419059797715902	0.9731845590924167	0.8718350443061822	0.06519997721529652	0.8141786921417207	0.7176103117238881	0.15274688837006428	0.7360926429608927	0.6751108525134318	0.1458179897216253	0.7320641495744715	0.662551364530096	0.09852878992862998	0.7195362251313944	0.6961781460790037	
1	0.0166666666666666	0.2615756310974717	0.7278686566519205	0.9189949593931587	0.27312432781401863	0.2513152512228677	0.8904495604666105	0.2928462261091739	-0.2544171035680767	0.918238878422576	0.23902805726533913	-0.20208878788138443	0.6577703381183324	0.3051844162480027	-0.2166168912929143	0.6957158459661118	0.29095041825661627	-0.3116798567101618	0.9495667170167924	0.026532487117288204	0.6940949407673143	0.9445671822356091	0.05706981009418505	0.23202228359396077	0.8890943932480151	0.0931062496321491	-0.23084042801113064	0.8657640297426119	0.1249721879654054	-0.20007952164675494	0.6622026714695722	0.06304227368708536	-0.2054417470478745	0.68305057997232	0.11311079068768637	-0.3171293295519386	0.9283496565232413	0.10801676716558309	1.2742628315837188	0.969442230295718	0.10274436355506301	1.5225959879425146	0.9517350530945221	0.07455653514684729	1.4134951142615977	0.8550837399646551	0.2600860760458374	1.2187222963550093	0.9213569532706887	0.3438099276823654	0.9574662182244132	0.8671475182239885	0.17094802399692247	0.8241532115084024	0.6948111524430346	0.06858268355868558	0.736454147226205	0.6947025521861516	0.07822265212937257	0.7210292474924669	0.7038623810475	0.1285625260699829	0.6879327896372771	0.6821112600358405	-0.04818035902145134	1.2123790281397566	0.9392989740544654	-0.09555085136885065	0.9708753024378393	0.8749823632401936	0.06119691948672199	0.8141286636212555	0.7157273009507754	0.14932592984348936	0.7387464519202664	0.6772675978359832	0.14438182809755723	0.7331654569038168	0.6658353854764	0.10214158948944202	0.7189202313835441	0.6992314875607055	
2	0.0333333333333333	0.260810482585704	0.727164184838306	0.9202228495147867	0.27327712147994226	0.2503268229544956	0.8894688141977547	0.291887489588132	-0.2540632023658694	0.9180073779966956	0.23684325831192862	-0.1976383170563911	0.6534698280687002	0.306725062809801	-0.21597158149470203	0.6949243120365286	0.2906656430882705	-0.3119636060607535	0.9497781430378524	0.02668364464243947	0.6935802979388757	0.9446300612429492	0.05704403965948745	0.2324835724647138	0.8891512049613198	0.0934641980790202	-0.23233710654533507	0.8660225448540984	0.12376764627959391	-0.1962554274847904	0.6580134474762774	0.06370785845250031	-0.20398286992078776	0.6831160215737728	0.11330855438486967	-0.31739718236269526	0.9289021238593952	0.10798206076909261	1.275331142911178	0.9695812426888417	0.10278770435766192	1.522637700937879	0.9516950289862031	0.07465424682963943	1.4145178799113483	0.8556859259251877	0.2596502826244561	1.2190578398013892	0.9204972586263741	0.3449382139791335	0.9567456425168223	0.8696261155511522	0.17243917775492515	0.8226523965814708	0.6978369405641968	0.07519330056522758	0.7363702619378432	0.6959337597394207	0.08196510131997307	0.7228996318601087	0.7043172219045788	0.1274092621764467	0.6917376521431465	0.6862798128108993	-0.048145166306150865	1.2122781828140092	0.939656849493457	-0.09596752970494175	0.968980790509402	0.8779800194104144	0.059320629572509755	0.813631413915801	0.7163402921917846	0.14790188290551273	0.7409012780492459	0.6785537446345842	0.14392261947729962	0.7345445185106778	0.6670788908795315	0.10515294692379765	0.718251693368819	0.7036546444389331	
3	0.05	0.26018739029376753	0.7264104220625927	0.9213728598955407	0.2733737455781627	0.24935830898406175	0.8887904551678262	0.2910770935521894	-0.25381592535410047	0.9178132092580671	0.23554607509314152	-0.19446892104509655	0.6510537296939514	0.3074891407291397	-0.21559072754045974	0.694454609801352	0.290453373802641	-0.31211697408786926	0.9499813787896436	0.0267796740162998	0.6930906842339085	0.9446396314171817	0.0570321814996935	0.23280288560302043	0.8891944594619874	0.09372793314381603	-0.23353236758561963	0.8662320345213665	0.12286500238865725	-0.19357602503860816	0.655839113194438	0.06400799651142326	-0.20289396295594295	0.6830720828379089	0.11350896531882738	-0.3175615692050499	0.9294182071602209	0.10797378883516838	1.275909556850954	0.9696403267714169	0.10277972529310957	1.5229115323167781	0.9516551528005555	0.0745047770856923	1.4151210795494493	0.8555876260238198	0.25965360470043336	1.2191320307064584	0.9205354308276941	0.34590081035409104	0.9560721778866554	0.8717329101888802	0.17373516605429248	0.8216640602518046	0.7007456568330388	0.07965264529074542	0.7363237841210813	0.6967610998386213	0.08538884913970549	0.7239206474229449	0.7047473339907997	0.12663625054115393	0.6942960852632546	0.6904664829326778	-0.048087325677660456	1.2122255974259064	0.9398539426261727	-0.09562264249803924	0.967475913115734	0.8806249715660494	0.05907908814770738	0.8128650015565274	0.7186654310987795	0.14797162369363237	0.7426025103670765	0.6792289840376968	0.14421866518530674	0.7359823633845171	0.6669202310981908	0.10761332966633988	0.717548223213979	0.7089521779485988	
4	0.0666666666666666	0.2596933283624179	0.7256278738285727	0.9224353446474535	0.27342233600338184	0.24842669455217892	0.8883735310093819	0.2904045169975739	-0.25366134077336305	0.9176537967473	0.23494416001578558	-0.19244173783761542	0.6500731354078417	0.3076692227304088	-0.21541800055573185	0.6942350088662887	0.29030698301736113	-0.31215274309149177	0.9501760522894193	0.026826463341431447	0.6926338562929204	0.944603502589087	0.057032486049452255	0.23299459462511557	0.8892249265239851	0.09390548547371166	-0.23445504611194512	0.8663965583035746	0.12217293859968999	-0.191856651685218	0.6551950265772505	0.06402976894377103	-0.20213063863203928	0.6829541049295654	0.11370658242781491	-0.3176329793511523	0.9298982576144232	0.1079832571123336	1.2761141537442084	0.9696445748681003	0.10273346110553924	1.5233520161052474	0.9516154762011907	0.07419810525420131	1.4153609407334165	0.8550091901980097	0.25995962083791485	1.2190141134233528	0.9211850568490756	0.34669437943721976	0.9554704099689053	0.8734680749232346	0.17489269973471414	0.821020442730044	0.7035615728667901	0.08233297434532848	0.7363492347605924	0.6972593852799615	0.08832364642129008	0.7243302143549765	0.7051552534292942	0.1261204909196963	0.6958948907308957	0.6943094793923554	-0.04801461465764762	1.212206740961408	0.9399292775650161	-0.09469819926075002	0.9663355600654644	0.8827141784563032	0.05998027588736243	0.8120074850746055	0.7219188633236236	0.14903202834534623	0.743895537893004	0.6795530071737829	0.14504826654603287	0.7372600205147977	0.6659977564910782	0.10957320515171172	0.7168274330457849	0.7146286493246148	
5	0.0833333333333333	0.2593152709324107	0.7248370456400388	0.9234006578825569	0.2734310286503017	0.24754896489946032	0.8881770893549783	0.2898592389205132	-0.2535855168642504	0.917526565005004	0.2348451654866691	-0.19141790542406684	0.6500791376241277	0.30745788153799897	-0.21539707166606734	0.6941937788370461	0.290219843350064	-0.3120836953716042	0.9503617915544328	0.026829900720396645	0.6922175707564189	0.9445292845894464	0.057043203743412735	0.23307307114723297	0.8892433759212806	0.0940048857158822	-0.23513397710427325	0.866520175759881	0.12160013721978705	-0.1909126448016339	0.6555965455779122	0.06386025682946057	-0.20164850942778154	0.6827974290135792	0.11389596465008764	-0.31762190207315255	0.9303426264107065	0.10800177134911176	1.2760610139321011	0.9696190793035495	0.1026619465390845	1.523893686329323	0.9515760508517208	0.0738242106743621	1.415293691020764	0.8541709683852163	0.26043190960104684	1.2187733323052057	0.9221597236649464	0.347315583858502	0.9549649243985624	0.874831782540278	0.17596848963588024	0.8205537842268266	0.7063089602826808	0.08360654433906631	0.7364811348410472	0.6975034288596487	0.09059924399744734	0.7243662528302015	0.7055435163431942	0.12573898306766587	0.6968208702793623	0.697447011181112	-0.04793481076777996	1.2122070824064715	0.9399218784223915	-0.09337620950568129	0.9655346211672207	0.8840445988303813	0.0615321734665226	0.8112369230012033	0.7253167345181806	0.15057997299815262	0.7448257496462719	0.6797855051713044	0.14618972488393267	0.73815851889098	0.664949817416894	0.11108304081455636	0.7161069349909939	0.7201886198018936	
6	0.1	0.2590401921445015	0.724058443000783	0.9242591537128834	0.2734079594136242	0.24674210526651902	0.8881601778371728	0.28943073831723504	-0.2535745218673555	0.9174289385717885	0.23513761439732	-0.1914500711952822	0.6504184449962898	0.3072908817409931	-0.2155054016345146	0.694286215701494	0.29018532741838277	-0.31192261322818954	0.9505382246019374	0.026795874255757638	0.6918495842649109	0.9444245872490407	0.05706258501622399	0.2330526867856076	0.8892505774278409	0.09403416451750271	-0.23559799554256478	0.866606946449444	0.12099683515033144	-0.19040288461284915	0.6564376421815583	0.06368216928285943	-0.20127113784019113	0.6826544807060659	0.11407167092390098	-0.31753882664320077	0.9307516647377754	0.10801496968695924	1.27593914996908	0.9696194194064016	0.10259550372251548	1.5243649346088086	0.9515433146352892	0.0735222028448112	1.4149424112912157	0.8533859115566285	0.26087119971435924	1.218411225668673	0.9229993016408591	0.34772128883751174	0.9545588993485696	0.8757433433844861	0.17704833304769552	0.8200361868691759	0.7090328326350837	0.08408344567448073	0.7367001271560603	0.6975917425119347	0.0917985681596136	0.7244332190798627	0.7060448972682871	0.12523254137450213	0.6974526315512962	0.6993132895194805	-0.04786774971058469	1.2122007950349345	0.9398943319305817	-0.09196367875192973	0.9651107219886108	0.8840452696574759	0.06280964213216844	0.8110835415646976	0.7272318335029431	0.15172351049059396	0.745422215873825	0.6803692418907484	0.14751803626361298	0.7382554273661599	0.6651103640241941	0.11216999752434134	0.7155621233972435	0.7246131689528749	
